<?xml version="1.0" encoding="utf-8"?>
<svg xmlns="http://www.w3.org/2000/svg" viewBox="0 0 48 48" width="48" height="48">
  <path d="M24 4C12.972 4 4 12.972 4 24C4 35.028 12.972 44 24 44C35.028 44 44 35.028 44 24C44 12.972 35.028 4 24 4 z M 24 10C31.72 10 38 16.28 38 24L38 25.5C38 28.532 35.533 31 32.5 31C30.737 31 29.167156 30.161187 28.160156 28.867188C26.978156 30.179188 25.328 31 23.5 31C19.916 31 17 27.859 17 24C17 20.141 19.916 17 23.5 17C24.809 17 26.026828 17.422578 27.048828 18.142578C27.209828 17.488578 27.795 17 28.5 17C29.329 17 30 17.672 30 18.5L30 25.5C30 26.879 31.122 28 32.5 28C33.878 28 35 26.879 35 25.5L35 24C35 17.935 30.065 13 24 13C17.935 13 13 17.935 13 24C13 30.065 17.935 35 24 35C25.331 35 26.632234 34.765734 27.865234 34.302734C28.638234 34.009734 29.506875 34.405641 29.796875 35.181641C30.087875 35.956641 29.694922 36.820328 28.919922 37.111328C27.347922 37.700328 25.692 38 24 38C16.28 38 10 31.72 10 24C10 16.28 16.28 10 24 10 z M 23.5 20 A 3.5 4 0 0 0 23.5 28 A 3.5 4 0 0 0 23.5 20 z" fill="#3C3C3C" />
</svg>