<?xml version="1.0" encoding="utf-8"?>
<svg xmlns="http://www.w3.org/2000/svg" viewBox="0 0 48 48" width="48" height="48">
  <path d="M17.5 4 A 1.50015 1.50015 0 0 0 16.058594 5.0878906L10.058594 26.087891 A 1.50015 1.50015 0 0 0 11.5 28L16.578125 28L13.044922 42.136719 A 1.50015 1.50015 0 0 0 15.582031 43.539062L39.582031 18.539062 A 1.50015 1.50015 0 0 0 38.5 16L29.582031 16L32.923828 5.9746094 A 1.50015 1.50015 0 0 0 31.5 4L17.5 4 z M 18.630859 7L29.417969 7L26.076172 17.025391 A 1.50015 1.50015 0 0 0 27.5 19L34.980469 19L17.322266 37.394531L19.955078 26.863281 A 1.50015 1.50015 0 0 0 18.5 25L13.488281 25L18.630859 7 z" fill="#3C3C3C" />
</svg>