<?xml version="1.0" encoding="utf-8"?>
<svg xmlns="http://www.w3.org/2000/svg" viewBox="0 0 48 48" width="48" height="48">
  <path d="M18.5 6 A 1.50015 1.50015 0 0 0 17 7.5L17 25.5 A 1.50015 1.50015 0 0 0 18.5 27L24.308594 27C24.308594 27 25.698131 27.01933 27.113281 26.259766C28.528432 25.500203 30 23.715778 30 21C30 18.244333 28.382562 16.457325 26.888672 15.71875C26.863502 15.70631 26.845442 15.709246 26.820312 15.697266C27.586955 14.763218 28.382813 13.581831 28.382812 12C28.382813 9.3984676 27.057698 7.6509579 25.75 6.8515625C24.442302 6.0521671 23.123047 6.0019531 23.123047 6.0019531 A 1.50015 1.50015 0 0 0 23.050781 6L18.5 6 z M 20 9L22.984375 9C22.990075 9.0004073 23.580189 9.042055 24.185547 9.4121094C24.793849 9.7839639 25.382814 10.286532 25.382812 12C25.382812 12.473 24.90842 13.390184 24.283203 14.109375C23.819655 14.642598 23.56735 14.827638 23.359375 15L20 15L20 9 z M 40 15C35.688 15 31 18.739473 31 25.974609C31 32.274373 35.188 36 39.5 36C44.2105 36 46.726562 32.521484 46.726562 32.521484 A 1.50015 1.50015 0 1 0 44.273438 30.794922C44.273438 30.794922 42.7895 33 39.5 33C36.812 33 34 31.042846 34 25.974609C34 19.945746 37.312 18 40 18C42.368333 18 43.324219 19.326172 43.324219 19.326172 A 1.50015 1.50015 0 1 0 45.675781 17.464844C45.675781 17.464844 43.631667 15 40 15 z M 9.5039062 15.001953 A 1.50015 1.50015 0 0 0 8.203125 15.886719L0.13085938 33.886719 A 1.50015 1.50015 0 0 0 2.8046875 35.238281L4.203125 32.769531L15.097656 32.769531L16.126953 35.105469 A 1.5006168 1.5006168 0 1 0 18.873047 33.894531L10.943359 15.894531 A 1.50015 1.50015 0 0 0 9.5039062 15.001953 z M 23.734375 17.982422 A 1.50015 1.50015 0 0 0 23.949219 18C23.949219 18 24.778937 18.01983 25.560547 18.40625C26.342157 18.792675 27 19.255667 27 21C27 22.784222 26.376162 23.249797 25.695312 23.615234C25.014463 23.980671 24.308594 24 24.308594 24L20 24L20 18L23.5 18 A 1.50015 1.50015 0 0 0 23.734375 17.982422 z M 9.5585938 20.193359L13.777344 29.769531L5.265625 29.769531L9.5585938 20.193359 z" fill="#3C3C3C" />
</svg>