<?xml version="1.0" encoding="utf-8"?>
<svg xmlns="http://www.w3.org/2000/svg" viewBox="0 0 48 48" width="144" height="144">
  <path d="M11.923828 3.0019531 A 1.50015 1.50015 0 0 0 10.576172 4.0253906L8.6894531 9.6894531L3.0253906 11.576172 A 1.50015 1.50015 0 0 0 3.0253906 14.423828L8.6875 16.3125L10.576172 21.974609 A 1.50015 1.50015 0 0 0 13.423828 21.974609L15.310547 16.310547L20.974609 14.423828 A 1.50015 1.50015 0 0 0 20.974609 11.576172L15.310547 9.6894531L13.423828 4.0253906 A 1.50015 1.50015 0 0 0 11.923828 3.0019531 z M 12 9.2460938L12.701172 11.349609 A 1.50015 1.50015 0 0 0 13.650391 12.298828L15.753906 13L13.650391 13.701172 A 1.50015 1.50015 0 0 0 12.701172 14.650391L12 16.753906L11.298828 14.650391 A 1.50015 1.50015 0 0 0 10.349609 13.701172L8.2460938 13L10.349609 12.298828 A 1.50015 1.50015 0 0 0 11.298828 11.349609L12 9.2460938 z M 31.439453 12.001953 A 1.50015 1.50015 0 0 0 30.072266 13.041016L27.146484 22.146484L18.041016 25.072266 A 1.50015 1.50015 0 0 0 18.041016 27.927734L27.146484 30.853516L30.072266 39.958984 A 1.50015 1.50015 0 0 0 32.927734 39.958984L35.853516 30.853516L44.958984 27.927734 A 1.50015 1.50015 0 0 0 44.958984 25.072266L35.853516 22.146484L32.927734 13.041016 A 1.50015 1.50015 0 0 0 31.439453 12.001953 z M 31.5 18.400391L33.234375 23.796875 A 1.50015 1.50015 0 0 0 34.203125 24.765625L39.599609 26.5L34.203125 28.234375 A 1.50015 1.50015 0 0 0 33.234375 29.203125L31.5 34.599609L29.765625 29.203125 A 1.50015 1.50015 0 0 0 28.796875 28.234375L23.400391 26.5L28.796875 24.765625 A 1.50015 1.50015 0 0 0 29.765625 23.796875L31.5 18.400391 z M 10.423828 28.001953 A 1.50015 1.50015 0 0 0 9.0761719 29.025391L7.5625 33.564453L3.0253906 35.076172 A 1.50015 1.50015 0 0 0 3.0253906 37.923828L7.5625 39.435547L9.0761719 43.974609 A 1.50015 1.50015 0 0 0 11.923828 43.974609L13.435547 39.435547L17.974609 37.923828 A 1.50015 1.50015 0 0 0 17.974609 35.076172L13.4375 33.5625L11.923828 29.025391 A 1.50015 1.50015 0 0 0 10.423828 28.001953 z M 10.5 34.244141L10.826172 35.224609 A 1.50015 1.50015 0 0 0 11.775391 36.173828L12.753906 36.5L11.775391 36.826172 A 1.50015 1.50015 0 0 0 10.826172 37.775391L10.5 38.755859L10.171875 37.775391 A 1.50015 1.50015 0 0 0 9.2226562 36.826172L8.2441406 36.5L9.2226562 36.173828 A 1.50015 1.50015 0 0 0 10.171875 35.224609L10.5 34.244141 z" fill="#3C3C3C" />
</svg>