<?xml version="1.0" encoding="utf-8"?>
<svg xmlns="http://www.w3.org/2000/svg" viewBox="0 0 48 48" width="48" height="48">
  <path d="M24 4C12.972292 4 4 12.972292 4 24C4 35.027708 12.972292 44 24 44C30.53585 44 36.348851 40.850837 40 35.988281L40 39.5 A 1.50015 1.50015 0 1 0 43 39.5L43 32.5 A 1.50015 1.50015 0 0 0 41.5 31L34.5 31 A 1.50015 1.50015 0 1 0 34.5 34L37.75 34C34.660921 38.241802 29.660824 41 24 41C14.593708 41 7 33.406292 7 24C7 14.593708 14.593708 7 24 7C33.406292 7 41 14.593708 41 24L41 24.5 A 1.50015 1.50015 0 1 0 44 24.5L44 24C44 12.972292 35.027708 4 24 4 z M 23.476562 11.978516 A 1.50015 1.50015 0 0 0 22 13.5L22 25.5 A 1.50015 1.50015 0 0 0 23.5 27L31.5 27 A 1.50015 1.50015 0 1 0 31.5 24L25 24L25 13.5 A 1.50015 1.50015 0 0 0 23.476562 11.978516 z" fill="#3C3C3C" />
</svg>