<?xml version="1.0" encoding="utf-8"?>
<svg width="8.000015px" height="8px" viewBox="0 0 8.000015 8" version="1.1" xmlns:xlink="http://www.w3.org/1999/xlink" xmlns="http://www.w3.org/2000/svg">
  <defs>
    <path d="M8.00002 0L8.00002 0L8.00002 8L0 8L0 0L8.00002 0Z" id="path_1" />
    <clipPath id="clip_1">
      <use xlink:href="#path_1" clip-rule="evenodd" fill-rule="evenodd" />
    </clipPath>
  </defs>
  <g id="icons8_link" clip-path="url(#clip_1)">
    <path d="M8.00002 0L8.00002 0L8.00002 8L0 8L0 0L8.00002 0Z" id="icons8_link" fill="none" stroke="none" />
    <path d="M2.16666 2.16667C1.15707 2.16667 0.333328 2.99041 0.333328 4C0.333328 5.00959 1.15707 5.83333 2.16666 5.83333L2.91666 5.83333C3.00682 5.83461 3.09068 5.78724 3.13613 5.70936C3.18158 5.63149 3.18158 5.53518 3.13613 5.4573C3.09068 5.37943 3.00682 5.33206 2.91666 5.33333L2.16666 5.33333C1.42725 5.33333 0.833328 4.73941 0.833328 4C0.833328 3.26059 1.42725 2.66667 2.16666 2.66667L2.91666 2.66667C3.00682 2.66794 3.09068 2.62057 3.13613 2.5427C3.18158 2.46482 3.18158 2.36851 3.13613 2.29063C3.09068 2.21276 3.00682 2.16539 2.91666 2.16667L2.16666 2.16667L2.16666 2.16667ZM5.08333 2.16667C4.99317 2.16539 4.90931 2.21276 4.86386 2.29063C4.81841 2.36851 4.81841 2.46482 4.86386 2.5427C4.90931 2.62057 4.99317 2.66794 5.08333 2.66667L5.83333 2.66667C6.57274 2.66667 7.16666 3.26059 7.16666 4C7.16666 4.73941 6.57274 5.33333 5.83333 5.33333L5.08333 5.33333C4.99317 5.33206 4.90931 5.37943 4.86386 5.4573C4.81841 5.53518 4.81841 5.63149 4.86386 5.70937C4.90931 5.78724 4.99317 5.83461 5.08333 5.83333L5.83333 5.83333C6.84292 5.83333 7.66666 5.00959 7.66666 4C7.66666 2.99041 6.84292 2.16667 5.83333 2.16667L5.08333 2.16667L5.08333 2.16667ZM1.91666 3.75C1.8265 3.74872 1.74264 3.79609 1.69719 3.87397C1.65174 3.95184 1.65174 4.04816 1.69719 4.12603C1.74264 4.20391 1.82651 4.25128 1.91666 4.25L6.08333 4.25C6.17349 4.25127 6.25735 4.20391 6.3028 4.12603C6.34825 4.04816 6.34825 3.95184 6.3028 3.87397C6.25735 3.79609 6.17349 3.74872 6.08333 3.75L1.91666 3.75L1.91666 3.75Z" id="Shape" fill="#3C3C3C" fill-rule="evenodd" stroke="none" />
  </g>
</svg>