<?xml version="1.0" encoding="utf-8"?>
<svg width="8px" height="8px" viewBox="0 0 8 8" version="1.1" xmlns:xlink="http://www.w3.org/1999/xlink" xmlns="http://www.w3.org/2000/svg">
  <path d="M5.78 4C5.78 4 8 4 8 4C8 6.20914 6.20914 8 4 8C1.79086 8 0 6.20914 0 4C0 1.79086 1.79086 0 4 0C6.20914 0 8 1.79086 8 4C8 4 5.78 4 5.78 4C5.78 3.01694 4.98306 2.22 4 2.22C3.01694 2.22 2.22 3.01694 2.22 4C2.22 4.98306 3.01694 5.78 4 5.78C4.98306 5.78 5.78 4.98306 5.78 4Z" id="Oval" fill="#D3D3D3" fill-rule="evenodd" stroke="none" />
</svg>