<?xml version="1.0" encoding="utf-8"?>
<svg xmlns="http://www.w3.org/2000/svg" viewBox="0 0 48 48" width="144" height="144">
  <path d="M24 2C22.125 2 20.528815 2.7571334 19.503906 3.9101562C18.478997 5.0631791 18 6.5416668 18 8C18 9.4583332 18.478997 10.936821 19.503906 12.089844C20.229271 12.905879 21.306014 13.40211 22.5 13.693359L22.5 16.208984C21.277894 16.373919 20.070604 16.669664 18.939453 17.242188L3.4121094 25.101562C2.7289387 25.447407 2.3822329 26.066523 2.2011719 26.730469 A 1.50015 1.50015 0 0 0 2 27.5L2 35.351562 A 1.50015 1.50015 0 0 0 1.9902344 35.605469C2.0197074 36.473801 2.5154293 37.394331 3.4082031 37.847656L18.943359 45.730469C22.126551 47.343946 25.872052 47.350703 29.060547 45.746094L44.587891 37.933594C45.548418 37.449853 46.047744 36.435849 46.013672 35.5 A 1.50015 1.50015 0 0 0 46 35.328125L46 27.5 A 1.50015 1.50015 0 0 0 45.767578 26.677734C45.56781 26.071069 45.232091 25.510453 44.599609 25.1875L29.0625 17.259766C27.93179 16.682547 26.722955 16.383634 25.5 16.214844L25.5 13.693359C26.693986 13.40211 27.770729 12.905879 28.496094 12.089844C29.521003 10.936821 30 9.4583332 30 8C30 6.5416668 29.521003 5.0631791 28.496094 3.9101562C27.471185 2.7571334 25.875 2 24 2 z M 24 5C25.124999 5 25.778816 5.3678666 26.253906 5.9023438C26.728997 6.4368209 27 7.2083332 27 8C27 8.7916668 26.728997 9.5631793 26.253906 10.097656C25.795073 10.613844 25.149438 10.958306 24.09375 10.982422 A 1.50015 1.50015 0 0 0 23.90625 10.982422C22.850562 10.958306 22.204927 10.613844 21.746094 10.097656C21.271003 9.5631793 21 8.7916668 21 8C21 7.2083332 21.271003 6.4368209 21.746094 5.9023438C22.221184 5.3678666 22.875001 5 24 5 z M 22.5 19.390625L22.5 26.5 A 1.50015 1.50015 0 1 0 25.5 26.5L25.5 19.396484C26.242477 19.541454 27.00299 19.576221 27.699219 19.931641L42.578125 27.525391L27.710938 35.050781C25.363155 36.238662 22.647244 36.234505 20.304688 35.039062L5.4257812 27.443359L20.292969 19.917969C20.991884 19.564219 21.75527 19.532927 22.5 19.390625 z M 14.5 26 A 2.5 1.5 0 0 0 14.5 29 A 2.5 1.5 0 0 0 14.5 26 z M 5 30.595703L18.941406 37.710938C22.124849 39.335496 25.874236 39.342632 29.064453 37.728516 A 1.50015 1.50015 0 0 0 29.066406 37.728516L43 30.675781L43 35.373047L27.712891 43.066406C25.365385 44.247792 22.64559 44.243211 20.300781 43.054688L5 35.291016L5 30.595703 z" fill="#3C3C3C" />
</svg>